Patient4_TMGait_0pt4_01_left_40_GRF.mot
version=1
nRows=39
nColumns=19
inDegrees=no
endheader
time	F1x	F1y	F1z	M1x	M1y	M1z	F2x	F2y	F2z	M2x	M2y	M2z	EC1x	EC1y	EC1z	EC2x	EC2y	EC2z
50.22	8.6321	-2.5464	-2.7799	0.93893	5.0479	10.0934	0.79954	736.0447	-52.7226	283.7328	57.0861	766.4853	-0.0592	0.0182	-0.0073	-0.0462	0.0165	0.9585
50.233	5.6968	-0.99875	-1.7687	0.37274	3.305	7.4904	-0.21917	727.5025	-54.6072	281.825	58.3554	756.5386	-0.0592	0.0182	-0.0073	-0.0462	0.0165	0.9585
50.246	3.2454	0.3483	-0.93385	-0.11653	1.8375	5.351	-0.65373	721.0756	-56.3425	280.4555	59.3416	748.3344	-0.0592	0.0182	-0.0073	-0.0462	0.0165	0.9585
50.259	1.4094	1.419	-0.3188	-0.50304	0.73361	3.7902	-0.51865	717.8652	-57.8268	279.9789	60.0104	743.0842	-0.0592	0.0182	-0.0073	-0.0462	0.0165	0.9585
50.272	0.15694	2.2151	0.094382	-0.78669	-0.024127	2.7926	0.054529	718.366	-59.0387	280.598	60.4034	741.4057	-0.0592	0.0182	-0.0073	-0.0462	0.0165	0.9585
50.285	-0.60924	2.7605	0.33204	-0.97823	-0.48267	2.2496	0.91878	722.4404	-60.0261	282.3106	60.6073	743.2603	-0.0592	0.0182	-0.0073	-0.0462	0.0165	0.9585
50.298	-1.0126	3.0778	0.45004	-1.0878	-0.72537	2.015	1.9362	729.4126	-60.8282	284.9153	60.6833	748.0466	-0.0592	0.0182	-0.0073	-0.0462	0.0165	0.9585
50.311	-1.1797	3.186	0.47809	-1.1242	-0.81499	1.9405	2.9909	738.1678	-61.5093	288.042	60.7007	754.6928	-0.0592	0.0182	-0.0073	-0.0462	0.0165	0.9585
50.324	-1.2134	3.0635	0.4599	-1.0805	-0.82279	1.8495	3.9824	747.3821	-62.1043	291.2351	60.6935	761.902	-0.0592	0.0182	-0.0073	-0.0462	0.0165	0.9585
50.337	-1.1988	2.6727	0.40665	-0.94316	-0.78691	1.5852	4.8524	755.7765	-62.6315	294.0434	60.6759	768.4101	-0.0592	0.0182	-0.0073	-0.0462	0.0165	0.9585
50.35	-1.1869	1.9499	0.34302	-0.68722	-0.7451	0.97992	5.5535	762.2687	-63.0642	296.0882	60.6223	773.126	-0.0592	0.0182	-0.0073	-0.0462	0.0165	0.9585
50.363	-1.203	0.83536	0.26313	-0.29001	-0.69823	-0.096109	6.0699	766.1686	-63.3777	297.1327	60.5059	775.339	-0.0592	0.0182	-0.0073	-0.0462	0.0165	0.9585
50.376	-1.244	-0.74731	0.1735	0.27066	-0.64324	-1.7545	6.4608	767.2282	-63.5342	297.1004	60.2694	774.7604	-0.0592	0.0182	-0.0073	-0.0462	0.0165	0.9585
50.389	-1.2655	-2.8096	0.061693	0.99306	-0.55036	-4.0075	6.7892	765.5586	-63.5404	296.0427	59.8966	771.4616	-0.0592	0.0182	-0.0073	-0.0462	0.0165	0.9585
50.402	-1.1993	-5.236	-0.069219	1.8343	-0.39563	-6.715	7.1551	761.5411	-63.4218	294.1097	59.3785	765.7706	-0.0592	0.0182	-0.0073	-0.0462	0.0165	0.9585
50.415	-0.92995	-7.7273	-0.22767	2.6894	-0.13092	-9.5342	7.6749	755.7834	-63.2574	291.5273	58.751	758.2529	-0.0592	0.0182	-0.0073	-0.0462	0.0165	0.9585
50.428	-0.32829	-9.6841	-0.41036	3.3549	0.28558	-11.7613	8.4742	748.9945	-63.118	288.5587	58.0412	749.5795	-0.0592	0.0182	-0.0073	-0.0462	0.0165	0.9585
50.441	0.78007	-10.138	-0.60916	3.5008	0.90005	-12.2648	9.6583	741.864	-63.0909	285.458	57.3017	740.4222	-0.0592	0.0182	-0.0073	-0.0462	0.0165	0.9585
50.454	2.5424	-7.6894	-0.8019	2.6487	1.7341	-9.3979	11.3164	734.913	-63.2242	282.4187	56.5547	731.3022	-0.0592	0.0182	-0.0073	-0.0462	0.0165	0.9585
50.467	5.0657	-0.48932	-0.93448	0.1661	2.7562	-1.0057	13.4841	728.3106	-63.5314	279.5045	55.8081	722.4144	-0.0592	0.0182	-0.0073	-0.0462	0.0165	0.9585
50.48	8.3506	13.6618	-0.92025	-4.7023	3.8563	15.4741	16.0959	721.7547	-63.9473	276.6001	55.0296	713.5341	-0.0592	0.0182	-0.0073	-0.0462	0.0165	0.9585
50.493	12.1855	36.9947	-0.63037	-12.7264	4.8067	42.6321	19.0182	714.379	-64.3559	273.379	54.1641	703.9142	-0.0592	0.0182	-0.0073	-0.0462	0.0165	0.9585
50.506	16.0385	71.2802	0.095576	-24.5179	5.234	82.4957	22.0029	704.788	-64.5404	269.3223	53.1021	692.3318	-0.0592	0.0182	-0.0073	-0.0462	0.0165	0.9585
50.519	18.9054	116.944	1.4591	-40.2226	4.564	135.536	24.7485	691.1808	-64.2022	263.7697	51.6799	677.173	-0.0592	0.0182	-0.0073	-0.0462	0.0165	0.9585
50.532	19.2193	171.7904	3.647	-59.0877	2.0471	199.1682	26.9661	671.6463	-62.9758	256.0216	49.6645	656.7	-0.0592	0.0182	-0.0073	-0.0462	0.0165	0.9585
50.545	15.4667	230.1706	6.9311	-79.1554	-3.1276	266.8463	28.4577	644.5786	-60.5474	245.4898	46.8371	629.4063	-0.0592	0.0182	-0.0073	-0.0462	0.0165	0.9585
50.558	8.4951	285.0029	11.8266	-97.9541	-11.2049	330.3085	29.1568	609.2616	-56.7894	231.9154	43.104	594.5583	-0.0592	0.0182	-0.0073	-0.0462	0.0165	0.9585
50.571	0.41369	332.6991	17.944	-114.2628	-20.9726	385.1569	29.138	566.3162	-51.8791	215.5245	38.6019	552.6521	-0.0592	0.0182	-0.0073	-0.0462	0.0165	0.9585
50.584	-7.1855	374.2385	24.4692	-128.4463	-30.9712	432.3134	28.5595	517.3958	-46.3181	196.9144	33.7287	505.1522	-0.0592	0.0182	-0.0073	-0.0462	0.0165	0.9585
50.597	-13.353	412.1403	30.7605	-141.4184	-40.139	474.6818	27.5572	464.5262	-40.7029	176.8241	28.961	453.9033	-0.0592	0.0182	-0.0073	-0.0462	0.0165	0.9585
50.61	-17.7252	448.5678	36.2872	-153.9684	-47.7751	514.8397	26.195	409.7658	-35.3736	156.0166	24.5673	400.8273	-0.0592	0.0182	-0.0073	-0.0462	0.0165	0.9585
50.623	-20.4811	484.464	40.7921	-166.4526	-53.6518	553.9794	24.4787	355.0728	-30.4569	135.2273	20.6462	347.7918	-0.0592	0.0182	-0.0073	-0.0462	0.0165	0.9585
50.636	-21.9236	519.9558	44.1388	-178.9244	-57.7443	592.2911	22.3704	302.2331	-25.9091	115.1371	17.1642	296.5056	-0.0592	0.0182	-0.0073	-0.0462	0.0165	0.9585
50.649	-22.4071	554.9709	46.4634	-191.3444	-60.3376	629.7623	19.8156	252.8229	-21.7136	96.343	14.1303	248.5093	-0.0592	0.0182	-0.0073	-0.0462	0.0165	0.9585
50.662	-22.2462	589.5469	47.9624	-203.6891	-61.7721	666.4963	16.8413	208.098	-17.8825	79.3152	11.5595	205.027	-0.0592	0.0182	-0.0073	-0.0462	0.0165	0.9585
50.675	-21.652	623.5685	48.9496	-215.8759	-62.4686	702.3925	13.5367	168.8945	-14.5034	64.3628	9.5108	166.8816	-0.0592	0.0182	-0.0073	-0.0462	0.0165	0.9585
50.688	-20.9051	656.3868	49.7464	-227.6352	-62.8724	736.7609	10.1098	135.5609	-11.6264	51.618	7.9694	134.397	-0.0592	0.0182	-0.0073	-0.0462	0.0165	0.9585
50.701	-20.2026	687.0033	50.6711	-238.5847	-63.3926	768.4701	6.8022	107.9306	-9.2802	41.0255	6.885	107.3956	-0.0592	0.0182	-0.0073	-0.0462	0.0165	0.9585
50.714	-19.6284	714.5752	51.7993	-248.4061	-64.141	796.5845	3.7809	85.3862	-7.4152	32.3657	6.1523	85.274	-0.0592	0.0182	-0.0073	-0.0462	0.0165	0.9585
